:SAMPLES-PER-SECOND 30
:FULLY-SPECIFIED
:DEGREES
19
root  -4.05073 40.9575 0.410691 172.359 -81.6468 -172.103
RightUpLeg  2.67345 -0.320674 -0.0153605
RightLeg  -1.4432 -15.7761 0.647646
RightFoot  0.345907 -0.266014 2.53967
RightToes  -3.10678e-008 1.75238e-005 3.56266e-009
Spine  5.4516 -6.61017 -12.1786
Spine1  1.12917 -9.95682 15.4544
HEad  -16.5374 -38.5512 7.23768
LeftShoulder1  1.81003 -3.31382 -20.0992
LeftArm  -15.5959 3.54938 -41.84
LeftForeArm  136.342 -77.3932 -129.673
LeftHand  -0.644708 -4.17982 8.09138
RightShoulder  1.46254 1.66049 22.126
RightArm  -8.3626 -15.5622 41.3259
RightForeArm  90.0842 79.7569 92.9437
RightHand  -0.200402 7.43312 -2.174
LeftUpLeg  4.92546 2.03329 2.29763
LeftLeg  -2.40835 24.3884 -1.6868
LeftFoot  -1.40836 0.153547 -1.58424
LeftToes  4.7643e-008 1.47522e-008 1.32869e-009
20
root  -4.03026 40.9517 0.435547 172.832 -80.5709 -172.451
RightUpLeg  2.44608 -0.141106 0.058949
RightLeg  -1.55542 -14.8973 0.603745
RightFoot  0.452761 -0.262527 2.51176
RightToes  -3.10678e-008 1.75238e-005 3.56266e-009
Spine  5.28677 -6.66006 -11.9665
Spine1  1.5281 -10.0241 15.2636
HEad  -16.8189 -38.9404 7.98887
LeftShoulder1  1.81554 -3.31487 -20.1805
LeftArm  -15.624 3.69787 -41.588
LeftForeArm  137.029 -77.343 -130.057
LeftHand  -0.689075 -4.32283 8.51745
RightShoulder  1.61862 2.15152 22.4382
RightArm  -8.47498 -15.2491 40.7944
RightForeArm  90.3047 79.742 93.3874
RightHand  -0.196587 7.51278 -2.1311
LeftUpLeg  4.91262 2.04797 2.27409
LeftLeg  -2.47471 25.4678 -1.72463
LeftFoot  -1.47734 0.163544 -1.71734
LeftToes  4.7643e-008 1.47522e-008 1.32869e-009
21
root  -4.00184 40.9528 0.41694 173.396 -79.7824 -172.915
RightUpLeg  2.33052 -0.0329285 0.115381
RightLeg  -1.78378 -14.173 0.621789
RightFoot  0.581039 -0.260574 2.50922
RightToes  -3.10678e-008 1.75238e-005 3.56266e-009
Spine  5.2778 -6.58962 -11.9931
Spine1  1.66959 -9.97916 15.2864
HEad  -16.2908 -39.2172 7.43409
LeftShoulder1  1.87065 -3.49003 -20.3094
LeftArm  -15.6279 2.82612 -41.2633
LeftForeArm  135.549 -77.6631 -128.289
LeftHand  -0.672436 -4.83681 7.91999
RightShoulder  1.663 2.27826 22.5861
RightArm  -8.67265 -14.9628 40.6774
RightForeArm  89.0585 79.7612 91.9642
RightHand  -0.193185 7.92007 -2.05433
LeftUpLeg  5.00181 1.99106 2.23779
LeftLeg  -2.82181 26.3407 -1.83389
LeftFoot  -1.36659 0.166991 -1.74634
LeftToes  4.7643e-008 1.47522e-008 1.32869e-009
22
root  -3.94883 40.9534 0.398338 173.95 -79.2656 -173.26
RightUpLeg  1.89927 0.0290629 0.125616
RightLeg  -1.62721 -13.7131 0.61016
RightFoot  0.581087 -0.260367 2.5308
RightToes  -3.10678e-008 1.75238e-005 3.56266e-009
Spine  5.54336 -6.43949 -12.0251
Spine1  1.25626 -9.81715 15.4261
HEad  -16.0256 -39.5273 7.54224
LeftShoulder1  1.95418 -3.72051 -20.6378
LeftArm  -15.52 1.03617 -40.8109
LeftForeArm  133.285 -78.0277 -125.959
LeftHand  -0.639267 -4.59672 7.71863
RightShoulder  1.5702 1.95724 22.5821
RightArm  -8.57341 -15.0744 40.9279
RightForeArm  87.7236 79.7784 90.3811
RightHand  -0.203982 8.04909 -2.13182
LeftUpLeg  4.78762 1.95112 2.23085
LeftLeg  -2.89802 26.9036 -1.86619
LeftFoot  -1.29621 0.180017 -1.92191
LeftToes  4.7643e-008 1.47522e-008 1.32869e-009
23
root  -3.91742 40.9538 0.361848 174.792 -79.1374 -173.831
RightUpLeg  1.60837 0.108742 0.1235
RightLeg  -1.7667 -13.6703 0.591539
RightFoot  0.645578 -0.251958 2.44074
RightToes  -3.10678e-008 1.75238e-005 3.56266e-009
Spine  5.83691 -6.40831 -12.4426
Spine1  0.653769 -9.82998 16.0278
HEad  -15.7789 -38.9346 7.51112
LeftShoulder1  1.95306 -3.64159 -20.9382
LeftArm  -15.5365 -1.90891 -40.9003
LeftForeArm  130.154 -78.4536 -122.828
LeftHand  -0.653084 -4.31949 8.08384
RightShoulder  1.62454 2.12908 22.669
RightArm  -8.57355 -16.0311 40.9602
RightForeArm  87.6083 79.7876 90.0633
RightHand  -0.262544 8.06751 -2.63941
LeftUpLeg  4.54527 1.84034 2.15875
LeftLeg  -3.1038 27.1577 -1.94565
LeftFoot  -1.17289 0.188313 -2.02146
LeftToes  4.7643e-008 1.47522e-008 1.32869e-009
24
root  -3.90405 40.9544 0.31857 174.638 -79.2451 -173.473
RightUpLeg  1.53167 0.10313 0.191517
RightLeg  -2.05601 -13.6733 0.793621
RightFoot  0.718833 -0.223204 2.1584
RightToes  -3.10678e-008 1.75238e-005 3.56266e-009
Spine  6.16204 -6.48053 -12.5851
Spine1  -0.000641274 -9.90175 16.3967
HEad  -15.3641 -38.2111 7.06814
LeftShoulder1  1.94318 -3.56386 -21.1097
LeftArm  -15.6331 -5.30939 -41.2887
LeftForeArm  127.339 -78.7672 -120.126
LeftHand  -0.6406 -4.10128 8.10652
RightShoulder  1.70574 2.34326 23.0231
RightArm  -8.48995 -16.7331 40.6529
RightForeArm  85.6271 79.7661 88.4581
RightHand  -0.280251 7.63933 -2.85998
LeftUpLeg  4.27361 1.83636 2.26516
LeftLeg  -3.01391 27.0675 -1.8428
LeftFoot  -1.19063 0.206 -2.24012
LeftToes  4.7643e-008 1.47522e-008 1.32869e-009
